<svg xmlns="http://www.w3.org/2000/svg" xmlns:xlink="http://www.w3.org/1999/xlink" xmlns:lucid="lucid" width="1772.06" height="1714.73"><g transform="translate(-440 1461.808955510244)" lucid:page-tab-id="jxKeG9SNYZ4n"><path d="M0-1500h2500V500H0z" fill="#fff"/><path d="M630-1351.8c0 16.56-13.43 30-30 30s-30-13.44-30-30c0-16.58 13.43-30 30-30s30 13.42 30 30z" stroke="#5e5e5e" stroke-width="3" fill="#3aa6dd"/><path d="M460-1435.8c0-3.32 2.7-6 6-6h268c3.3 0 6 2.68 6 6v28c0 3.3-2.7 6-6 6H466c-3.3 0-6-2.7-6-6z" stroke="#000" stroke-opacity="0" stroke-width="2" fill="#fff" fill-opacity="0"/><use xlink:href="#a" transform="matrix(1,0,0,1,465,-1436.808955510244) translate(80.41666666666669 26.666666666666657)"/><path d="M600-1317.3v145.52" stroke="#5e5e5e" stroke-width="6" fill="none"/><path d="M599.96-1320.3l2.33-.1.7-.1v3.27h-6v-3.32" fill="#5e5e5e"/><path d="M600-1154.52l-4.64-14.26h9.28z" stroke="#5e5e5e" stroke-width="6" fill="#5e5e5e"/><path d="M630-1113.3c0 16.56-13.43 30-30 30s-30-13.44-30-30c0-16.58 13.43-30 30-30s30 13.42 30 30z" stroke="#5e5e5e" stroke-width="3" fill="#3aa6dd"/><path d="M600-1078.8v145.5M600-1078.73v-3.08" stroke="#5e5e5e" stroke-width="6" fill="none"/><path d="M600-916.02l-4.64-14.27h9.28z" stroke="#5e5e5e" stroke-width="6" fill="#5e5e5e"/><path d="M630-874.8c0 16.56-13.43 30-30 30s-30-13.44-30-30c0-16.58 13.43-30 30-30s30 13.42 30 30z" stroke="#5e5e5e" stroke-width="3" fill="#3aa6dd"/><path d="M600-841.8v145.5M600-841.73v-3.08" stroke="#5e5e5e" stroke-width="6" fill="none"/><path d="M600-679.02l-4.64-14.27h9.28z" stroke="#5e5e5e" stroke-width="6" fill="#5e5e5e"/><path d="M630-637.8c0 16.56-13.43 30-30 30s-30-13.44-30-30c0-16.58 13.43-30 30-30s30 13.42 30 30z" stroke="#5e5e5e" stroke-width="3" fill="#3aa6dd"/><path d="M600-603.3v147" stroke="#5e5e5e" stroke-width="6" fill="none"/><path d="M599.96-606.3l2.33-.1.7-.1v3.27h-6v-3.33" fill="#5e5e5e"/><path d="M600-439.02l-4.64-14.27h9.28z" stroke="#5e5e5e" stroke-width="6" fill="#5e5e5e"/><path d="M630-399.3c0 16.55-13.43 30-30 30s-30-13.45-30-30c0-16.58 13.43-30 30-30s30 13.42 30 30z" stroke="#5e5e5e" stroke-width="3" fill="#3aa6dd"/><path d="M960-1127.3c0-3.32 2.7-6 6-6h268c3.3 0 6 2.68 6 6v28c0 3.3-2.7 6-6 6H966c-3.3 0-6-2.7-6-6z" stroke="#000" stroke-opacity="0" stroke-width="2" fill="#fff" fill-opacity="0"/><use xlink:href="#b" transform="matrix(1,0,0,1,965,-1128.309891096144) translate(77.59259259259262 26.666666666666657)"/><path d="M1130-1053.3c0 16.56-13.43 30-30 30s-30-13.44-30-30c0-16.58 13.43-30 30-30s30 13.42 30 30z" stroke="#5e5e5e" stroke-width="3" fill="#a3d977"/><path d="M1100-1018.8v35.5" stroke="#5e5e5e" stroke-width="6" fill="none"/><path d="M1099.96-1021.8l2.33-.1.7-.1v3.27h-6v-3.32" fill="#5e5e5e"/><path d="M1100-966.02l-4.64-14.27h9.28z" stroke="#5e5e5e" stroke-width="6" fill="#5e5e5e"/><path d="M1100-890.3v221" stroke="#5e5e5e" stroke-width="6" fill="none"/><path d="M1099.96-893.3l2.33-.1.7-.1v3.27h-6v-3.33" fill="#5e5e5e"/><path d="M1100-652.05l-4.64-14.26h9.28z" stroke="#5e5e5e" stroke-width="6" fill="#5e5e5e"/><path d="M1130-612.34c0 16.57-13.43 30-30 30s-30-13.43-30-30 13.43-30 30-30 30 13.43 30 30z" stroke="#5e5e5e" stroke-width="3" fill="#a3d977"/><path d="M634.5-1113.3H844c3.3 0 6 2.68 6 6v48c0 3.3 2.7 6 6 6h185.53" stroke="#5e5e5e" stroke-width="6" fill="none"/><path d="M634.58-1110.3h-3.32l.24-2.97-.08-2.33-.1-.7h3.26" fill="#5e5e5e"/><path d="M1058.8-1053.3l-14.27 4.63v-9.28z" stroke="#5e5e5e" stroke-width="6" fill="#5e5e5e"/><path d="M1200-636.67c0-3.3 2.7-6 6-6h128c3.3 0 6 2.7 6 6V-580c0 3.3-2.7 6-6 6h-128c-3.3 0-6-2.7-6-6z" stroke="#000" stroke-opacity="0" stroke-width="6" fill="#fff" fill-opacity="0"/><use xlink:href="#c" transform="matrix(1,0,0,1,1205,-637.6666666666667) translate(-5.549382716049365 34.388888888888886)"/><path d="M2163.32-1396.02h-97.27c-3.2 0-6.05 2.85-6.05 6.57v74.2c0 3.5 2.64 6.88 6.05 6.88h33.3c3.52 13.68 1.98 14.88-19.13 14.88v6.9h69.47v-6.9c-21.1 0-24.08-1.2-20.56-14.87h34.07c3.2 0 6.72-3.17 6.72-6.35v-74.73c0-3.72-3.4-6.57-6.6-6.57zm-2.1 77.9h-93.1l.56-68.92 92.55.33v68.6z" stroke="#000" stroke-opacity="0" fill="#00188f"/><path d="M2096.7-1366.03v.22l16.83 10.6 17.04-10.6v-.23l-17.04-10.62-16.82 10.62zM2132.32-1340.76v-20.9l-17.36 10.62v20.8l17.36-10.52zM2094.73-1340.76l17.37 10.5v-20.78l-17.37-10.62v20.9z" stroke="#000" stroke-opacity="0" fill="#00188f"/><use xlink:href="#d" transform="matrix(1,0,0,1,2030,-1277.5940788303662) translate(27.351851851851848 19.555555555555557)"/><path d="M2163.32-1180h-97.27c-3.2 0-6.05 2.84-6.05 6.57v74.18c0 3.5 2.64 6.9 6.05 6.9h33.3c3.52 13.67 1.98 14.88-19.13 14.88v6.9h69.47v-6.9c-21.1 0-24.08-1.2-20.56-14.88h34.07c3.2 0 6.72-3.18 6.72-6.35v-74.73c0-3.73-3.4-6.57-6.6-6.57zm-2.1 77.9h-93.1l.56-68.93 92.55.33v68.6z" stroke="#000" stroke-opacity="0" fill="#00188f"/><path d="M2096.7-1150.02v.22l16.83 10.6 17.04-10.6v-.22l-17.04-10.6-16.82 10.6zM2132.32-1124.74v-20.9l-17.36 10.6v20.8l17.36-10.5zM2094.73-1124.74l17.37 10.5v-20.8l-17.37-10.6v20.9z" stroke="#000" stroke-opacity="0" fill="#00188f"/><use xlink:href="#e" transform="matrix(1,0,0,1,2030,-1061.57906597336) translate(64.62962962962963 19.555555555555557)"/><path d="M2155.6-820h-97.28c-3.2 0-6.05 2.84-6.05 6.57v74.18c0 3.5 2.64 6.9 6.05 6.9h33.3c3.52 13.67 1.98 14.88-19.12 14.88v6.9h69.47v-6.9c-21.1 0-24.08-1.2-20.56-14.88h34.1c3.17 0 6.7-3.18 6.7-6.35v-74.73c0-3.73-3.42-6.57-6.6-6.57zm-2.1 77.9h-93.1l.56-68.93 92.55.33v68.6z" stroke="#000" stroke-opacity="0" fill="#00188f"/><path d="M2089-790.02v.22l16.8 10.6 17.04-10.6v-.22l-17.04-10.6-16.8 10.6zM2124.6-764.74v-20.9l-17.37 10.6v20.8l17.37-10.5zM2087-764.74l17.37 10.5v-20.8l-17.36-10.6v20.9z" stroke="#000" stroke-opacity="0" fill="#00188f"/><use xlink:href="#f" transform="matrix(1,0,0,1,2022.274849680151,-701.57906597336) translate(20.59567901234567 19.555555555555557)"/><use xlink:href="#g" transform="matrix(1,0,0,1,2022.274849680151,-701.57906597336) translate(61.33641975308642 19.555555555555557)"/><use xlink:href="#h" transform="matrix(1,0,0,1,2022.274849680151,-701.57906597336) translate(2.2283950617284063 48.88888888888889)"/><use xlink:href="#i" transform="matrix(1,0,0,1,2022.274849680151,-701.57906597336) translate(60.62345679012347 48.88888888888889)"/><use xlink:href="#j" transform="matrix(1,0,0,1,2022.274849680151,-701.57906597336) translate(87.78395061728396 48.88888888888889)"/><use xlink:href="#k" transform="matrix(1,0,0,1,2022.274849680151,-701.57906597336) translate(43.64814814814815 78.22222222222223)"/><path d="M2163.32 59.17h-97.27c-3.2 0-6.05 2.84-6.05 6.56v74.2c0 3.5 2.64 6.88 6.05 6.88h33.3c3.52 13.7 1.98 14.9-19.13 14.9v6.9h69.47v-6.9c-21.1 0-24.08-1.2-20.56-14.9h34.07c3.2 0 6.72-3.16 6.72-6.33V65.73c0-3.72-3.4-6.56-6.6-6.56zm-2.1 77.9h-93.1l.56-68.93 92.55.33v68.6z" stroke="#000" stroke-opacity="0" fill="#00188f"/><path d="M2096.7 89.15v.22l16.83 10.6 17.04-10.6v-.22l-17.04-10.62-16.82 10.62zM2132.32 114.42v-20.9l-17.36 10.62v20.8l17.36-10.52zM2094.73 114.42l17.37 10.5v-20.78l-17.37-10.62v20.9z" stroke="#000" stroke-opacity="0" fill="#00188f"/><use xlink:href="#l" transform="matrix(1,0,0,1,2030,177.58693812590127) translate(55.83641975308642 19.555555555555557)"/><use xlink:href="#m" transform="matrix(1,0,0,1,2030,177.58693812590127) translate(19.305555555555543 48.88888888888889)"/><path d="M2163.32-976.46h-97.27c-3.2 0-6.05 2.68-6.05 6.2v70.03c0 3.3 2.64 6.5 6.05 6.5h33.3c3.52 12.93 1.98 14.06-19.13 14.06v6.5h69.47v-6.5c-21.1 0-24.08-1.13-20.56-14.05h34.07c3.2 0 6.72-3 6.72-6v-70.54c0-3.52-3.4-6.2-6.6-6.2zm-2.1 73.55h-93.1l.56-65.1 92.55.32v64.77z" stroke="#000" stroke-opacity="0" fill="#00188f"/><path d="M2096.7-948.16v.2l16.83 10.03 17.04-10.02v-.2l-17.04-10.03-16.82 10.02zM2132.32-924.3V-944L2114.96-934v19.62l17.36-9.9zM2094.73-924.3l17.37 9.92V-934l-17.37-10.02v19.73z" stroke="#000" stroke-opacity="0" fill="#00188f"/><use xlink:href="#n" transform="matrix(1,0,0,1,2030,-864.1603631491718) translate(45.00617283950618 19.555555555555557)"/><path d="M634.5-1351.8h1398.52" stroke="#5e5e5e" stroke-width="6" fill="none"/><path d="M634.58-1348.8h-3.32l.24-2.97-.08-2.33-.1-.7h3.26" fill="#5e5e5e"/><path d="M2050.3-1351.8l-14.28 4.63v-9.27z" stroke="#5e5e5e" stroke-width="6" fill="#5e5e5e"/><path d="M1380-1395.8c0-3.32 2.7-6 6-6h420.27c3.32 0 6 2.68 6 6v47.16c0 3.3-2.68 6-6 6H1386c-3.3 0-6-2.7-6-6z" stroke="#000" stroke-opacity="0" stroke-width="6" fill="#fff" fill-opacity="0"/><use xlink:href="#o" transform="matrix(1,0,0,1,1385,-1396.808955510244) translate(135.65432098765433 28.930555555555557)"/><use xlink:href="#p" transform="matrix(1,0,0,1,1385,-1396.808955510244) translate(183.0493827160494 28.930555555555557)"/><use xlink:href="#q" transform="matrix(1,0,0,1,1385,-1396.808955510244) translate(235.87654320987656 28.930555555555557)"/><path d="M1134.5-1053.3h531.7c3.32 0 6 2.68 6 6v265.5c0 3.32 2.7 6 6 6h347.1" stroke="#5e5e5e" stroke-width="6" fill="none"/><path d="M1134.58-1050.3h-3.32l.24-2.97-.08-2.33-.1-.7h3.26" fill="#5e5e5e"/><path d="M2042.57-775.8l-14.27 4.64v-9.27z" stroke="#5e5e5e" stroke-width="6" fill="#5e5e5e"/><path d="M1720-903.7c0-3.3 2.7-6 6-6h296.07c3.3 0 6 2.7 6 6v24.54c0 3.3-2.7 6-6 6H1726c-3.3 0-6-2.7-6-6z" stroke="#000" stroke-opacity="0" stroke-width="6" fill="#fff" fill-opacity="0"/><use xlink:href="#o" transform="matrix(1,0,0,1,1725,-904.6859314154599) translate(73.65432098765433 21.243055555555557)"/><use xlink:href="#p" transform="matrix(1,0,0,1,1725,-904.6859314154599) translate(121.0493827160494 21.243055555555557)"/><use xlink:href="#q" transform="matrix(1,0,0,1,1725,-904.6859314154599) translate(173.87654320987656 21.243055555555557)"/><path d="M1660-755.84c0-3.3 2.7-6 6-6h420.27c3.32 0 6 2.7 6 6v8.48c0 3.32-2.68 6-6 6H1666c-3.3 0-6-2.68-6-6z" stroke="#000" stroke-opacity="0" stroke-width="6" fill="#fff" fill-opacity="0"/><use xlink:href="#r" transform="matrix(1,0,0,1,1665,-756.836140091033) translate(149.77777777777777 19.555555555555557)"/><path d="M880-790c0 16.57-13.43 30-30 30s-30-13.43-30-30 13.43-30 30-30 30 13.43 30 30z" stroke="#5e5e5e" stroke-width="3" fill="#c92d39"/><path d="M850-755.5v204.02" stroke="#5e5e5e" stroke-width="6" fill="none"/><path d="M849.96-758.5l2.33-.08.7-.1v3.26h-6v-3.32" fill="#5e5e5e"/><path d="M850-534.2l-4.64-14.28h9.28z" stroke="#5e5e5e" stroke-width="6" fill="#5e5e5e"/><path d="M880-494.5c0 16.57-13.43 30-30 30s-30-13.43-30-30 13.43-30 30-30 30 13.43 30 30z" stroke="#5e5e5e" stroke-width="3" fill="#c92d39"/><path d="M660-797.84c0-3.3 2.7-6 6-6h128c3.3 0 6 2.7 6 6v30c0 3.32-2.7 6-6 6H666c-3.3 0-6-2.68-6-6z" stroke="#000" stroke-opacity="0" stroke-width="6" fill="#fff" fill-opacity="0"/><use xlink:href="#s" transform="matrix(1,0,0,1,665,-798.836140091033) translate(-13.40740740740739 21.333333333333332)"/><path d="M660-509.5c0-3.32 2.7-6 6-6h128c3.3 0 6 2.68 6 6v30c0 3.3-2.7 6-6 6H666c-3.3 0-6-2.7-6-6z" stroke="#000" stroke-opacity="0" stroke-width="6" fill="#fff" fill-opacity="0"/><use xlink:href="#t" transform="matrix(1,0,0,1,665,-510.50280675769966) translate(-13.40740740740739 21.333333333333332)"/><path d="M884.5-790H974c3.3 0 6 2.7 6 6V-2.63c0 3.32 2.7 6 6 6h938c3.3 0 6 2.7 6 6v88c0 3.32 2.7 6 6 6h97.03" stroke="#5e5e5e" stroke-width="6" fill="none"/><path d="M884.58-787h-3.32l.24-2.96-.08-2.33-.1-.7h3.26" fill="#5e5e5e"/><path d="M2050.3 103.37l-14.27 4.64v-9.26z" stroke="#5e5e5e" stroke-width="6" fill="#5e5e5e"/><path d="M1273.86 6c0-3.3 2.7-6 6-6h420.28c3.3 0 6 2.7 6 6v47.17c0 3.3-2.7 6-6 6h-420.28c-3.3 0-6-2.7-6-6z" stroke="#000" stroke-opacity="0" stroke-width="6" fill="#fff" fill-opacity="0"/><use xlink:href="#o" transform="matrix(1,0,0,1,1278.8625751599245,5) translate(135.65432098765433 28.930555555555557)"/><use xlink:href="#p" transform="matrix(1,0,0,1,1278.8625751599245,5) translate(183.0493827160494 28.930555555555557)"/><use xlink:href="#q" transform="matrix(1,0,0,1,1278.8625751599245,5) translate(235.87654320987656 28.930555555555557)"/><path d="M1380-910c0 16.57-13.43 30-30 30s-30-13.43-30-30 13.43-30 30-30 30 13.43 30 30zM1380-530c0 16.57-13.43 30-30 30s-30-13.43-30-30 13.43-30 30-30 30 13.43 30 30z" stroke="#5e5e5e" stroke-width="3" fill="#ef8d22"/><path d="M1420-934c0-3.3 2.7-6 6-6h128c3.3 0 6 2.7 6 6v51.33c0 3.32-2.7 6-6 6h-128c-3.3 0-6-2.68-6-6z" stroke="#000" stroke-opacity="0" stroke-width="6" fill="#fff" fill-opacity="0"/><use xlink:href="#u" transform="matrix(1,0,0,1,1425,-935) translate(5.959876543209873 33.05555555555556)"/><path d="M1388-1244c0-3.3 2.7-6 6-6h420.27c3.32 0 6 2.7 6 6v47.17c0 3.3-2.68 6-6 6H1394c-3.3 0-6-2.7-6-6z" stroke="#000" stroke-opacity="0" stroke-width="6" fill="#fff" fill-opacity="0"/><use xlink:href="#v" transform="matrix(1,0,0,1,1393,-1245) translate(83.30246913580251 28.930555555555554)"/><use xlink:href="#w" transform="matrix(1,0,0,1,1393,-1245) translate(213.53703703703704 28.930555555555554)"/><path d="M1130-924.8c0 16.56-13.43 30-30 30s-30-13.44-30-30c0-16.58 13.43-30 30-30s30 13.42 30 30z" stroke="#5e5e5e" stroke-width="3" fill="#a3d977"/><path d="M634.5-1351.8h680.3c3.3 0 6 2.68 6 6v139.8c0 3.3 2.68 6 6 6H1864c3.3 0 6 2.7 6 6v52.2c0 3.32 2.7 6 6 6h157.03" stroke="#5e5e5e" stroke-width="6" fill="none"/><path d="M634.58-1348.8h-3.32l.24-2.97-.08-2.33-.1-.7h3.26" fill="#5e5e5e"/><path d="M2050.3-1135.8l-14.27 4.64v-9.27z" stroke="#5e5e5e" stroke-width="6" fill="#5e5e5e"/><path d="M1400-554c0-3.3 2.7-6 6-6h128c3.3 0 6 2.7 6 6v51.33c0 3.32-2.7 6-6 6h-128c-3.3 0-6-2.68-6-6z" stroke="#000" stroke-opacity="0" stroke-width="6" fill="#fff" fill-opacity="0"/><use xlink:href="#x" transform="matrix(1,0,0,1,1405,-555) translate(5.959876543209873 33.05555555555556)"/><path d="M1270-571v35c0 3.3 2.7 6 6 6h15.53" stroke="#5e5e5e" stroke-width="6" fill="none"/><path d="M1273-570.92h-6V-574h6" fill="#5e5e5e"/><path d="M1308.8-530l-14.27 4.64v-9.28z" stroke="#5e5e5e" stroke-width="6" fill="#5e5e5e"/><path d="M1350-944.5v-65.2" stroke="#5e5e5e" stroke-width="6" fill="none"/><path d="M1353-941.26l-2.96-.24-2.33.08-.7.1v-3.26h6" fill="#5e5e5e"/><path d="M1350-1026.96l4.64 14.27h-9.28z" stroke="#5e5e5e" stroke-width="6" fill="#5e5e5e"/><path d="M1268-1015.98V-916c0 3.3 2.7 6 6 6h17.53M1268-1015.9v-3.08" stroke="#5e5e5e" stroke-width="6" fill="none"/><path d="M1308.8-910l-14.27 4.64v-9.28z" stroke="#5e5e5e" stroke-width="6" fill="#5e5e5e"/><path d="M720-970.65c0-3.32 2.7-6 6-6h268c3.3 0 6 2.68 6 6v28c0 3.3-2.7 6-6 6H726c-3.3 0-6-2.7-6-6z" stroke="#000" stroke-opacity="0" stroke-width="2" fill="#fff" fill-opacity="0"/><use xlink:href="#y" transform="matrix(1,0,0,1,725,-971.654945548072) translate(89.81481481481482 26.666666666666657)"/><path d="M1065.5-924.8H856c-3.3 0-6 2.68-6 6v70.33" stroke="#5e5e5e" stroke-width="6" fill="none"/><path d="M1068.5-924.85l.08 2.33.1.7h-3.26v-6h3.32" fill="#5e5e5e"/><path d="M850-831.2l-4.64-14.27h9.28z" stroke="#5e5e5e" stroke-width="6" fill="#5e5e5e"/><path d="M884.5-790H1094c3.3 0 6-2.7 6-6v-70.34" stroke="#5e5e5e" stroke-width="6" fill="none"/><path d="M884.58-787h-3.32l.24-2.96-.08-2.33-.1-.7h3.26" fill="#5e5e5e"/><path d="M1100-883.6l4.64 14.26h-9.28z" stroke="#5e5e5e" stroke-width="6" fill="#5e5e5e"/><path d="M1280-1094c0-3.3 2.7-6 6-6h128c3.3 0 6 2.7 6 6v51.33c0 3.32-2.7 6-6 6h-128c-3.3 0-6-2.68-6-6z" stroke="#000" stroke-opacity="0" stroke-width="6" fill="#fff" fill-opacity="0"/><use xlink:href="#z" transform="matrix(1,0,0,1,1285,-1095) translate(-5.549382716049365 31.88888888888889)"/><path d="M1470-563v-131c0-3.3-2.7-6-6-6h-188c-3.3 0-6 2.7-6 6v24.36" stroke="#5e5e5e" stroke-width="6" fill="none"/><path d="M1473-560h-6v-3.08h6" fill="#5e5e5e"/><path d="M1270-652.37l-4.64-14.27h9.28z" stroke="#5e5e5e" stroke-width="6" fill="#5e5e5e"/><path d="M2163.32-200h-97.27c-3.2 0-6.05 2.84-6.05 6.57v74.18c0 3.5 2.64 6.9 6.05 6.9h33.3c3.52 13.67 1.98 14.88-19.13 14.88v6.9h69.47v-6.9c-21.1 0-24.08-1.2-20.56-14.88h34.07c3.2 0 6.72-3.18 6.72-6.35v-74.73c0-3.73-3.4-6.57-6.6-6.57zm-2.1 77.9h-93.1l.56-68.93 92.55.33v68.6z" stroke="#000" stroke-opacity="0" fill="#00188f"/><path d="M2096.7-170.02v.22l16.83 10.6 17.04-10.6v-.22l-17.04-10.6-16.82 10.6zM2132.32-144.74v-20.9l-17.36 10.6v20.8l17.36-10.5zM2094.73-144.74l17.37 10.5v-20.8l-17.37-10.6v20.9z" stroke="#000" stroke-opacity="0" fill="#00188f"/><use xlink:href="#A" transform="matrix(1,0,0,1,2030,-81.57906597335999) translate(54.47839506172839 19.555555555555557)"/><path d="M1660-194c0-3.3 2.7-6 6-6h420.27c3.32 0 6 2.7 6 6v8.48c0 3.3-2.68 6-6 6H1666c-3.3 0-6-2.7-6-6z" stroke="#000" stroke-opacity="0" stroke-width="6" fill="#fff" fill-opacity="0"/><use xlink:href="#r" transform="matrix(1,0,0,1,1665,-195) translate(149.77777777777777 19.555555555555557)"/><path d="M1134.5-1053.3H1664c3.3 0 6 2.68 6 6v885.5c0 3.32 2.7 6 6 6h357.03" stroke="#5e5e5e" stroke-width="6" fill="none"/><path d="M1134.58-1050.3h-3.32l.24-2.97-.08-2.33-.1-.7h3.26" fill="#5e5e5e"/><path d="M2050.3-155.8l-14.27 4.64v-9.27z" stroke="#5e5e5e" stroke-width="6" fill="#5e5e5e"/><path d="M1134.5-1053.3H1664c3.3 0 6 2.68 6 6v265.5c0 3.32 2.7 6 6 6h349.3" stroke="#5e5e5e" stroke-width="6" fill="none"/><path d="M1134.58-1050.3h-3.32l.24-2.97-.08-2.33-.1-.7h3.26" fill="#5e5e5e"/><path d="M2042.57-775.8l-14.27 4.64v-9.27z" stroke="#5e5e5e" stroke-width="6" fill="#5e5e5e"/><path d="M2155.6-582.34h-97.28c-3.2 0-6.05 2.7-6.05 6.2v70.04c0 3.3 2.64 6.5 6.05 6.5h33.3c3.52 12.92 1.98 14.05-19.12 14.05v6.5h69.47v-6.5c-21.1 0-24.08-1.13-20.56-14.04h34.1c3.17 0 6.7-3 6.7-6v-70.54c0-3.5-3.42-6.2-6.6-6.2zm-2.1 73.55h-93.1l.56-65.07 92.55.3v64.78z" stroke="#000" stroke-opacity="0" fill="#00188f"/><path d="M2089-554.03v.2l16.8 10.02 17.04-10.03v-.2l-17.04-10.02-16.8 10.02zM2124.6-530.17v-19.73l-17.37 10.02v19.62l17.37-9.9zM2087-530.17l17.37 9.9v-19.6L2087-549.9v19.73z" stroke="#000" stroke-opacity="0" fill="#00188f"/><use xlink:href="#B" transform="matrix(1,0,0,1,2022.274849680151,-470.03801978298856) translate(65.98765432098766 19.555555555555557)"/><path d="M2163.32-391.17h-97.27c-3.2 0-6.05 2.7-6.05 6.2v70.04c0 3.3 2.64 6.5 6.05 6.5h33.3c3.52 12.92 1.98 14.05-19.13 14.05v6.5h69.47v-6.5c-21.1 0-24.08-1.13-20.56-14.05h34.07c3.2 0 6.72-3 6.72-6v-70.54c0-3.5-3.4-6.2-6.6-6.2zm-2.1 73.55h-93.1l.56-65.08 92.55.3v64.78z" stroke="#000" stroke-opacity="0" fill="#00188f"/><path d="M2096.7-362.87v.2l16.83 10.03 17.04-10.02v-.2l-17.04-10.03-16.82 10.03zM2132.32-339v-19.73l-17.36 10.02v19.6l17.36-9.9zM2094.73-339l17.37 9.9v-19.6l-17.37-10.03V-339z" stroke="#000" stroke-opacity="0" fill="#00188f"/><use xlink:href="#C" transform="matrix(1,0,0,1,2030,-278.86854635862215) translate(34.888888888888886 19.555555555555557)"/><path d="M1673-536.53h352.3M1673.08-536.53H1670" stroke="#5e5e5e" stroke-width="6" fill="none"/><path d="M2042.57-536.53l-14.27 4.64v-9.26z" stroke="#5e5e5e" stroke-width="6" fill="#5e5e5e"/><path d="M1673-340h360.03M1673.08-340H1670" stroke="#5e5e5e" stroke-width="6" fill="none"/><path d="M2050.3-340l-14.27 4.64v-9.28z" stroke="#5e5e5e" stroke-width="6" fill="#5e5e5e"/><path d="M1730.08-518.5c0-3.32 2.7-6 6-6h268c3.32 0 6 2.68 6 6v30c0 3.3-2.68 6-6 6h-268c-3.3 0-6-2.7-6-6z" stroke="#000" stroke-opacity="0" stroke-width="6" fill="#fff" fill-opacity="0"/><g><use xlink:href="#D" transform="matrix(1,0,0,1,1735.0840712101772,-519.5028067576997) translate(79.35493827160492 21.555555555555557)"/></g><path d="M1675.2-934.73h357.82M1675.28-934.73h-3.08" stroke="#5e5e5e" stroke-width="6" fill="none"/><path d="M2050.3-934.73L2036-930.1v-9.26z" stroke="#5e5e5e" stroke-width="6" fill="#5e5e5e"/><path d="M1764.2-385.17c0-3.3 2.7-6 6-6h211.87c3.3 0 6 2.7 6 6v18.5c0 3.32-2.7 6-6 6H1770.2c-3.3 0-6-2.68-6-6z" stroke="#000" stroke-opacity="0" stroke-width="6" fill="#fff" fill-opacity="0"/><g><use xlink:href="#r" transform="matrix(1,0,0,1,1769.206137260113,-386.1694734243664) translate(45.27777777777777 19.555555555555557)"/></g><defs><path fill="#333" d="M220-157c-53 9-28 100-34 157h-49v-107c1-27-5-49-29-50C55-147 81-57 75 0H25l-1-190h47c2 12-1 28 3 38 10-53 101-56 108 0 13-22 24-43 59-42 82 1 51 116 57 194h-49v-107c-1-25-5-48-29-50" id="E"/><path fill="#333" d="M133-34C117-15 103 5 69 4 32 3 11-16 11-54c-1-60 55-63 116-61 1-26-3-47-28-47-18 1-26 9-28 27l-52-2c7-38 36-58 82-57s74 22 75 68l1 82c-1 14 12 18 25 15v27c-30 8-71 5-69-32zm-48 3c29 0 43-24 42-57-32 0-66-3-65 30 0 17 8 27 23 27" id="F"/><path fill="#333" d="M137-138c1-29-70-34-71-4 15 46 118 7 119 86 1 83-164 76-172 9l43-7c4 19 20 25 44 25 33 8 57-30 24-41C81-84 22-81 20-136c-2-80 154-74 161-7" id="G"/><path fill="#333" d="M115-3C79 11 28 4 28-45v-112H4v-33h27l15-45h31v45h36v33H77v99c-1 23 16 31 38 25v30" id="H"/><path fill="#333" d="M185-48c-13 30-37 53-82 52C43 2 14-33 14-96s30-98 90-98c62 0 83 45 84 108H66c0 31 8 55 39 56 18 0 30-7 34-22zm-45-69c5-46-57-63-70-21-2 6-4 13-4 21h74" id="I"/><path fill="#333" d="M135-150c-39-12-60 13-60 57V0H25l-1-190h47c2 13-1 29 3 40 6-28 27-53 61-41v41" id="J"/><g id="a"><use transform="matrix(0.09259259259259256,0,0,0.09259259259259256,0,0)" xlink:href="#E"/><use transform="matrix(0.09259259259259256,0,0,0.09259259259259256,29.62962962962962,0)" xlink:href="#F"/><use transform="matrix(0.09259259259259256,0,0,0.09259259259259256,48.14814814814813,0)" xlink:href="#G"/><use transform="matrix(0.09259259259259256,0,0,0.09259259259259256,66.66666666666664,0)" xlink:href="#H"/><use transform="matrix(0.09259259259259256,0,0,0.09259259259259256,77.68518518518516,0)" xlink:href="#I"/><use transform="matrix(0.09259259259259256,0,0,0.09259259259259256,96.20370370370367,0)" xlink:href="#J"/></g><path fill="#333" d="M25 0v-261h50V0H25" id="K"/><g id="b"><use transform="matrix(0.09259259259259256,0,0,0.09259259259259256,0,0)" xlink:href="#J"/><use transform="matrix(0.09259259259259256,0,0,0.09259259259259256,12.962962962962958,0)" xlink:href="#I"/><use transform="matrix(0.09259259259259256,0,0,0.09259259259259256,31.48148148148147,0)" xlink:href="#K"/><use transform="matrix(0.09259259259259256,0,0,0.09259259259259256,40.740740740740726,0)" xlink:href="#I"/><use transform="matrix(0.09259259259259256,0,0,0.09259259259259256,59.25925925925924,0)" xlink:href="#F"/><use transform="matrix(0.09259259259259256,0,0,0.09259259259259256,77.77777777777774,0)" xlink:href="#G"/><use transform="matrix(0.09259259259259256,0,0,0.09259259259259256,96.29629629629625,0)" xlink:href="#I"/></g><path fill="#333" d="M114-163C36-179 61-72 57 0H25l-1-190h30c1 12-1 29 2 39 6-27 23-49 58-41v29" id="L"/><path fill="#333" d="M100-194c63 0 86 42 84 106H49c0 40 14 67 53 68 26 1 43-12 49-29l28 8c-11 28-37 45-77 45C44 4 14-33 15-96c1-61 26-98 85-98zm52 81c6-60-76-77-97-28-3 7-6 17-6 28h103" id="M"/><path fill="#333" d="M24 0v-261h32V0H24" id="N"/><path fill="#333" d="M141-36C126-15 110 5 73 4 37 3 15-17 15-53c-1-64 63-63 125-63 3-35-9-54-41-54-24 1-41 7-42 31l-33-3c5-37 33-52 76-52 45 0 72 20 72 64v82c-1 20 7 32 28 27v20c-31 9-61-2-59-35zM48-53c0 20 12 33 32 33 41-3 63-29 60-74-43 2-92-5-92 41" id="O"/><path fill="#333" d="M135-143c-3-34-86-38-87 0 15 53 115 12 119 90S17 21 10-45l28-5c4 36 97 45 98 0-10-56-113-15-118-90-4-57 82-63 122-42 12 7 21 19 24 35" id="P"/><path fill="#333" d="M0 4l72-265h28L28 4H0" id="Q"/><path fill="#333" d="M101-251c68 0 85 55 85 127S166 4 100 4C33 4 14-52 14-124c0-73 17-127 87-127zm-1 229c47 0 54-49 54-102s-4-102-53-102c-51 0-55 48-55 102 0 53 5 102 54 102" id="R"/><path fill="#333" d="M33 0v-38h34V0H33" id="S"/><path fill="#333" d="M101-251c82-7 93 87 43 132L82-64C71-53 59-42 53-27h129V0H18c2-99 128-94 128-182 0-28-16-43-45-43s-46 15-49 41l-32-3c6-41 34-60 81-64" id="T"/><g id="c"><use transform="matrix(0.06790123456790122,0,0,0.06790123456790122,0,0)" xlink:href="#L"/><use transform="matrix(0.06790123456790122,0,0,0.06790123456790122,8.080246913580245,0)" xlink:href="#M"/><use transform="matrix(0.06790123456790122,0,0,0.06790123456790122,21.660493827160487,0)" xlink:href="#N"/><use transform="matrix(0.06790123456790122,0,0,0.06790123456790122,27.024691358024683,0)" xlink:href="#M"/><use transform="matrix(0.06790123456790122,0,0,0.06790123456790122,40.60493827160492,0)" xlink:href="#O"/><use transform="matrix(0.06790123456790122,0,0,0.06790123456790122,54.18518518518516,0)" xlink:href="#P"/><use transform="matrix(0.06790123456790122,0,0,0.06790123456790122,66.40740740740738,0)" xlink:href="#M"/><use transform="matrix(0.06790123456790122,0,0,0.06790123456790122,79.98765432098762,0)" xlink:href="#Q"/><use transform="matrix(0.06790123456790122,0,0,0.06790123456790122,86.77777777777774,0)" xlink:href="#R"/><use transform="matrix(0.06790123456790122,0,0,0.06790123456790122,100.35802469135798,0)" xlink:href="#S"/><use transform="matrix(0.06790123456790122,0,0,0.06790123456790122,107.14814814814811,0)" xlink:href="#T"/><use transform="matrix(0.06790123456790122,0,0,0.06790123456790122,120.72839506172835,0)" xlink:href="#S"/><use transform="matrix(0.06790123456790122,0,0,0.06790123456790122,127.51851851851848,0)" xlink:href="#R"/></g><path fill="#333" d="M33 0v-248h34V0H33" id="U"/><path fill="#333" d="M117-194c89-4 53 116 60 194h-32v-121c0-31-8-49-39-48C34-167 62-67 57 0H25l-1-190h30c1 10-1 24 2 32 11-22 29-35 61-36" id="V"/><path fill="#333" d="M59-47c-2 24 18 29 38 22v24C64 9 27 4 27-40v-127H5v-23h24l9-43h21v43h35v23H59v120" id="W"/><path fill="#333" d="M177-190C167-65 218 103 67 71c-23-6-38-20-44-43l32-5c15 47 100 32 89-28v-30C133-14 115 1 83 1 29 1 15-40 15-95c0-56 16-97 71-98 29-1 48 16 59 35 1-10 0-23 2-32h30zM94-22c36 0 50-32 50-73 0-42-14-75-50-75-39 0-46 34-46 75s6 73 46 73" id="X"/><path fill="#333" d="M24-231v-30h32v30H24zM24 0v-190h32V0H24" id="Y"/><path fill="#333" d="M100-194c62-1 85 37 85 99 1 63-27 99-86 99S16-35 15-95c0-66 28-99 85-99zM99-20c44 1 53-31 53-75 0-43-8-75-51-75s-53 32-53 75 10 74 51 75" id="Z"/><g id="d"><use transform="matrix(0.06790123456790123,0,0,0.06790123456790123,0,0)" xlink:href="#U"/><use transform="matrix(0.06790123456790123,0,0,0.06790123456790123,6.790123456790123,0)" xlink:href="#V"/><use transform="matrix(0.06790123456790123,0,0,0.06790123456790123,20.37037037037037,0)" xlink:href="#W"/><use transform="matrix(0.06790123456790123,0,0,0.06790123456790123,27.160493827160494,0)" xlink:href="#M"/><use transform="matrix(0.06790123456790123,0,0,0.06790123456790123,40.74074074074074,0)" xlink:href="#X"/><use transform="matrix(0.06790123456790123,0,0,0.06790123456790123,54.32098765432099,0)" xlink:href="#L"/><use transform="matrix(0.06790123456790123,0,0,0.06790123456790123,62.401234567901234,0)" xlink:href="#O"/><use transform="matrix(0.06790123456790123,0,0,0.06790123456790123,75.98148148148148,0)" xlink:href="#W"/><use transform="matrix(0.06790123456790123,0,0,0.06790123456790123,82.7716049382716,0)" xlink:href="#Y"/><use transform="matrix(0.06790123456790123,0,0,0.06790123456790123,88.13580246913581,0)" xlink:href="#Z"/><use transform="matrix(0.06790123456790123,0,0,0.06790123456790123,101.71604938271605,0)" xlink:href="#V"/></g><g id="e"><use transform="matrix(0.06790123456790123,0,0,0.06790123456790123,0,0)" xlink:href="#M"/><use transform="matrix(0.06790123456790123,0,0,0.06790123456790123,13.580246913580247,0)" xlink:href="#T"/><use transform="matrix(0.06790123456790123,0,0,0.06790123456790123,27.160493827160494,0)" xlink:href="#M"/></g><path fill="#333" d="M84 4C-5 8 30-112 23-190h32v120c0 31 7 50 39 49 72-2 45-101 50-169h31l1 190h-30c-1-10 1-25-2-33-11 22-28 36-60 37" id="aa"/><g id="f"><use transform="matrix(0.06790123456790123,0,0,0.06790123456790123,0,0)" xlink:href="#aa"/><use transform="matrix(0.06790123456790123,0,0,0.06790123456790123,13.580246913580247,0)" xlink:href="#O"/><use transform="matrix(0.06790123456790123,0,0,0.06790123456790123,27.160493827160494,0)" xlink:href="#W"/></g><path fill="#333" d="M87 75C49 33 22-17 22-94c0-76 28-126 65-167h31c-38 41-64 92-64 168S80 34 118 75H87" id="ab"/><path fill="#333" d="M210-169c-67 3-38 105-44 169h-31v-121c0-29-5-50-35-48C34-165 62-65 56 0H25l-1-190h30c1 10-1 24 2 32 10-44 99-50 107 0 11-21 27-35 58-36 85-2 47 119 55 194h-31v-121c0-29-5-49-35-48" id="ac"/><g id="g"><use transform="matrix(0.06790123456790123,0,0,0.06790123456790123,0,0)" xlink:href="#ab"/><use transform="matrix(0.06790123456790123,0,0,0.06790123456790123,8.080246913580247,0)" xlink:href="#ac"/><use transform="matrix(0.06790123456790123,0,0,0.06790123456790123,28.382716049382715,0)" xlink:href="#O"/><use transform="matrix(0.06790123456790123,0,0,0.06790123456790123,41.96296296296296,0)" xlink:href="#V"/><use transform="matrix(0.06790123456790123,0,0,0.06790123456790123,55.54320987654321,0)" xlink:href="#aa"/><use transform="matrix(0.06790123456790123,0,0,0.06790123456790123,69.12345679012346,0)" xlink:href="#O"/><use transform="matrix(0.06790123456790123,0,0,0.06790123456790123,82.7037037037037,0)" xlink:href="#N"/></g><g id="h"><use transform="matrix(0.06790123456790123,0,0,0.06790123456790123,0,0)" xlink:href="#W"/><use transform="matrix(0.06790123456790123,0,0,0.06790123456790123,6.790123456790123,0)" xlink:href="#M"/><use transform="matrix(0.06790123456790123,0,0,0.06790123456790123,20.37037037037037,0)" xlink:href="#P"/><use transform="matrix(0.06790123456790123,0,0,0.06790123456790123,32.592592592592595,0)" xlink:href="#W"/><use transform="matrix(0.06790123456790123,0,0,0.06790123456790123,39.38271604938272,0)" xlink:href="#P"/></g><path fill="#333" d="M101-234c-31-9-42 10-38 44h38v23H63V0H32v-167H5v-23h27c-7-52 17-82 69-68v24" id="ad"/><g id="i"><use transform="matrix(0.06790123456790123,0,0,0.06790123456790123,0,0)" xlink:href="#Z"/><use transform="matrix(0.06790123456790123,0,0,0.06790123456790123,13.580246913580247,0)" xlink:href="#ad"/></g><g id="j"><use transform="matrix(0.06790123456790123,0,0,0.06790123456790123,0,0)" xlink:href="#L"/><use transform="matrix(0.06790123456790123,0,0,0.06790123456790123,8.080246913580247,0)" xlink:href="#M"/><use transform="matrix(0.06790123456790123,0,0,0.06790123456790123,21.660493827160494,0)" xlink:href="#N"/><use transform="matrix(0.06790123456790123,0,0,0.06790123456790123,27.02469135802469,0)" xlink:href="#M"/><use transform="matrix(0.06790123456790123,0,0,0.06790123456790123,40.60493827160494,0)" xlink:href="#O"/><use transform="matrix(0.06790123456790123,0,0,0.06790123456790123,54.18518518518518,0)" xlink:href="#P"/><use transform="matrix(0.06790123456790123,0,0,0.06790123456790123,66.4074074074074,0)" xlink:href="#M"/></g><path fill="#333" d="M115-194c53 0 69 39 70 98 0 66-23 100-70 100C84 3 66-7 56-30L54 0H23l1-261h32v101c10-23 28-34 59-34zm-8 174c40 0 45-34 45-75 0-40-5-75-45-74-42 0-51 32-51 76 0 43 10 73 51 73" id="ae"/><path fill="#333" d="M96-169c-40 0-48 33-48 73s9 75 48 75c24 0 41-14 43-38l32 2c-6 37-31 61-74 61-59 0-76-41-82-99-10-93 101-131 147-64 4 7 5 14 7 22l-32 3c-4-21-16-35-41-35" id="af"/><path fill="#333" d="M106-169C34-169 62-67 57 0H25v-261h32l-1 103c12-21 28-36 61-36 89 0 53 116 60 194h-32v-121c2-32-8-49-39-48" id="ag"/><path fill="#333" d="M33-261c38 41 65 92 65 168S71 34 33 75H2C39 34 66-17 66-93S39-220 2-261h31" id="ah"/><g id="k"><use transform="matrix(0.06790123456790123,0,0,0.06790123456790123,0,0)" xlink:href="#ae"/><use transform="matrix(0.06790123456790123,0,0,0.06790123456790123,13.580246913580247,0)" xlink:href="#L"/><use transform="matrix(0.06790123456790123,0,0,0.06790123456790123,21.660493827160494,0)" xlink:href="#O"/><use transform="matrix(0.06790123456790123,0,0,0.06790123456790123,35.24074074074074,0)" xlink:href="#V"/><use transform="matrix(0.06790123456790123,0,0,0.06790123456790123,48.82098765432099,0)" xlink:href="#af"/><use transform="matrix(0.06790123456790123,0,0,0.06790123456790123,61.04320987654321,0)" xlink:href="#ag"/><use transform="matrix(0.06790123456790123,0,0,0.06790123456790123,74.62345679012346,0)" xlink:href="#ah"/></g><path fill="#333" d="M141 0L90-78 38 0H4l68-98-65-92h35l48 74 47-74h35l-64 92 68 98h-35" id="ai"/><g id="l"><use transform="matrix(0.06790123456790123,0,0,0.06790123456790123,0,0)" xlink:href="#ag"/><use transform="matrix(0.06790123456790123,0,0,0.06790123456790123,13.580246913580247,0)" xlink:href="#Z"/><use transform="matrix(0.06790123456790123,0,0,0.06790123456790123,27.160493827160494,0)" xlink:href="#W"/><use transform="matrix(0.06790123456790123,0,0,0.06790123456790123,33.95061728395062,0)" xlink:href="#ad"/><use transform="matrix(0.06790123456790123,0,0,0.06790123456790123,40.74074074074075,0)" xlink:href="#Y"/><use transform="matrix(0.06790123456790123,0,0,0.06790123456790123,46.104938271604944,0)" xlink:href="#ai"/></g><path fill="#333" d="M115-194c55 1 70 41 70 98S169 2 115 4C84 4 66-9 55-30l1 105H24l-1-265h31l2 30c10-21 28-34 59-34zm-8 174c40 0 45-34 45-75s-6-73-45-74c-42 0-51 32-51 76 0 43 10 73 51 73" id="aj"/><g id="m"><use transform="matrix(0.06790123456790123,0,0,0.06790123456790123,0,0)" xlink:href="#ab"/><use transform="matrix(0.06790123456790123,0,0,0.06790123456790123,8.080246913580247,0)" xlink:href="#M"/><use transform="matrix(0.06790123456790123,0,0,0.06790123456790123,21.660493827160494,0)" xlink:href="#aj"/><use transform="matrix(0.06790123456790123,0,0,0.06790123456790123,35.24074074074074,0)" xlink:href="#ag"/><use transform="matrix(0.06790123456790123,0,0,0.06790123456790123,48.82098765432099,0)" xlink:href="#M"/><use transform="matrix(0.06790123456790123,0,0,0.06790123456790123,62.401234567901234,0)" xlink:href="#ac"/><use transform="matrix(0.06790123456790123,0,0,0.06790123456790123,82.7037037037037,0)" xlink:href="#M"/><use transform="matrix(0.06790123456790123,0,0,0.06790123456790123,96.28395061728395,0)" xlink:href="#L"/><use transform="matrix(0.06790123456790123,0,0,0.06790123456790123,104.3641975308642,0)" xlink:href="#O"/><use transform="matrix(0.06790123456790123,0,0,0.06790123456790123,117.94444444444446,0)" xlink:href="#N"/><use transform="matrix(0.06790123456790123,0,0,0.06790123456790123,123.30864197530866,0)" xlink:href="#ah"/></g><g id="n"><use transform="matrix(0.06790123456790123,0,0,0.06790123456790123,0,0)" xlink:href="#L"/><use transform="matrix(0.06790123456790123,0,0,0.06790123456790123,8.080246913580247,0)" xlink:href="#M"/><use transform="matrix(0.06790123456790123,0,0,0.06790123456790123,21.660493827160494,0)" xlink:href="#N"/><use transform="matrix(0.06790123456790123,0,0,0.06790123456790123,27.02469135802469,0)" xlink:href="#M"/><use transform="matrix(0.06790123456790123,0,0,0.06790123456790123,40.60493827160494,0)" xlink:href="#O"/><use transform="matrix(0.06790123456790123,0,0,0.06790123456790123,54.18518518518518,0)" xlink:href="#P"/><use transform="matrix(0.06790123456790123,0,0,0.06790123456790123,66.4074074074074,0)" xlink:href="#M"/></g><g id="o"><use transform="matrix(0.06790123456790123,0,0,0.06790123456790123,0,0)" xlink:href="#L"/><use transform="matrix(0.06790123456790123,0,0,0.06790123456790123,8.080246913580247,0)" xlink:href="#M"/><use transform="matrix(0.06790123456790123,0,0,0.06790123456790123,21.660493827160494,0)" xlink:href="#O"/><use transform="matrix(0.06790123456790123,0,0,0.06790123456790123,35.24074074074074,0)" xlink:href="#N"/></g><g id="p"><use transform="matrix(0.06790123456790123,0,0,0.06790123456790123,0,0)" xlink:href="#W"/><use transform="matrix(0.06790123456790123,0,0,0.06790123456790123,6.790123456790123,0)" xlink:href="#Y"/><use transform="matrix(0.06790123456790123,0,0,0.06790123456790123,12.15432098765432,0)" xlink:href="#ac"/><use transform="matrix(0.06790123456790123,0,0,0.06790123456790123,32.456790123456784,0)" xlink:href="#M"/></g><path fill="#333" d="M85-194c31 0 48 13 60 33l-1-100h32l1 261h-30c-2-10 0-23-3-31C134-8 116 4 85 4 32 4 16-35 15-94c0-66 23-100 70-100zm9 24c-40 0-46 34-46 75 0 40 6 74 45 74 42 0 51-32 51-76 0-42-9-74-50-73" id="ak"/><g id="q"><use transform="matrix(0.06790123456790123,0,0,0.06790123456790123,0,0)" xlink:href="#ae"/><use transform="matrix(0.06790123456790123,0,0,0.06790123456790123,13.580246913580247,0)" xlink:href="#aa"/><use transform="matrix(0.06790123456790123,0,0,0.06790123456790123,27.160493827160494,0)" xlink:href="#Y"/><use transform="matrix(0.06790123456790123,0,0,0.06790123456790123,32.52469135802469,0)" xlink:href="#N"/><use transform="matrix(0.06790123456790123,0,0,0.06790123456790123,37.888888888888886,0)" xlink:href="#ak"/></g><path fill="#333" d="M16-82v-28h88v28H16" id="al"/><g id="r"><use transform="matrix(0.06790123456790123,0,0,0.06790123456790123,0,0)" xlink:href="#Z"/><use transform="matrix(0.06790123456790123,0,0,0.06790123456790123,13.580246913580247,0)" xlink:href="#V"/><use transform="matrix(0.06790123456790123,0,0,0.06790123456790123,27.160493827160494,0)" xlink:href="#al"/><use transform="matrix(0.06790123456790123,0,0,0.06790123456790123,35.24074074074074,0)" xlink:href="#ak"/><use transform="matrix(0.06790123456790123,0,0,0.06790123456790123,48.82098765432099,0)" xlink:href="#M"/><use transform="matrix(0.06790123456790123,0,0,0.06790123456790123,62.401234567901234,0)" xlink:href="#ac"/><use transform="matrix(0.06790123456790123,0,0,0.06790123456790123,82.7037037037037,0)" xlink:href="#O"/><use transform="matrix(0.06790123456790123,0,0,0.06790123456790123,96.28395061728395,0)" xlink:href="#V"/><use transform="matrix(0.06790123456790123,0,0,0.06790123456790123,109.8641975308642,0)" xlink:href="#ak"/></g><path fill="#333" d="M27 0v-27h64v-190l-56 39v-29l58-41h29v221h61V0H27" id="am"/><g id="s"><use transform="matrix(0.07407407407407407,0,0,0.07407407407407407,0,0)" xlink:href="#ag"/><use transform="matrix(0.07407407407407407,0,0,0.07407407407407407,14.814814814814813,0)" xlink:href="#Z"/><use transform="matrix(0.07407407407407407,0,0,0.07407407407407407,29.629629629629626,0)" xlink:href="#W"/><use transform="matrix(0.07407407407407407,0,0,0.07407407407407407,37.03703703703703,0)" xlink:href="#ad"/><use transform="matrix(0.07407407407407407,0,0,0.07407407407407407,44.444444444444436,0)" xlink:href="#Y"/><use transform="matrix(0.07407407407407407,0,0,0.07407407407407407,50.29629629629629,0)" xlink:href="#ai"/><use transform="matrix(0.07407407407407407,0,0,0.07407407407407407,63.62962962962962,0)" xlink:href="#Q"/><use transform="matrix(0.07407407407407407,0,0,0.07407407407407407,71.03703703703702,0)" xlink:href="#ad"/><use transform="matrix(0.07407407407407407,0,0,0.07407407407407407,78.44444444444443,0)" xlink:href="#Y"/><use transform="matrix(0.07407407407407407,0,0,0.07407407407407407,84.29629629629628,0)" xlink:href="#ai"/><use transform="matrix(0.07407407407407407,0,0,0.07407407407407407,97.6296296296296,0)" xlink:href="#al"/><use transform="matrix(0.07407407407407407,0,0,0.07407407407407407,106.44444444444443,0)" xlink:href="#P"/><use transform="matrix(0.07407407407407407,0,0,0.07407407407407407,119.77777777777774,0)" xlink:href="#am"/><use transform="matrix(0.07407407407407407,0,0,0.07407407407407407,134.59259259259255,0)" xlink:href="#S"/><use transform="matrix(0.07407407407407407,0,0,0.07407407407407407,141.99999999999997,0)" xlink:href="#R"/></g><g id="t"><use transform="matrix(0.07407407407407407,0,0,0.07407407407407407,0,0)" xlink:href="#ag"/><use transform="matrix(0.07407407407407407,0,0,0.07407407407407407,14.814814814814813,0)" xlink:href="#Z"/><use transform="matrix(0.07407407407407407,0,0,0.07407407407407407,29.629629629629626,0)" xlink:href="#W"/><use transform="matrix(0.07407407407407407,0,0,0.07407407407407407,37.03703703703703,0)" xlink:href="#ad"/><use transform="matrix(0.07407407407407407,0,0,0.07407407407407407,44.444444444444436,0)" xlink:href="#Y"/><use transform="matrix(0.07407407407407407,0,0,0.07407407407407407,50.29629629629629,0)" xlink:href="#ai"/><use transform="matrix(0.07407407407407407,0,0,0.07407407407407407,63.62962962962962,0)" xlink:href="#Q"/><use transform="matrix(0.07407407407407407,0,0,0.07407407407407407,71.03703703703702,0)" xlink:href="#ad"/><use transform="matrix(0.07407407407407407,0,0,0.07407407407407407,78.44444444444443,0)" xlink:href="#Y"/><use transform="matrix(0.07407407407407407,0,0,0.07407407407407407,84.29629629629628,0)" xlink:href="#ai"/><use transform="matrix(0.07407407407407407,0,0,0.07407407407407407,97.6296296296296,0)" xlink:href="#al"/><use transform="matrix(0.07407407407407407,0,0,0.07407407407407407,106.44444444444443,0)" xlink:href="#P"/><use transform="matrix(0.07407407407407407,0,0,0.07407407407407407,119.77777777777774,0)" xlink:href="#T"/><use transform="matrix(0.07407407407407407,0,0,0.07407407407407407,134.59259259259255,0)" xlink:href="#S"/><use transform="matrix(0.07407407407407407,0,0,0.07407407407407407,141.99999999999997,0)" xlink:href="#R"/></g><g id="u"><use transform="matrix(0.06790123456790123,0,0,0.06790123456790123,0,0)" xlink:href="#ae"/><use transform="matrix(0.06790123456790123,0,0,0.06790123456790123,13.580246913580247,0)" xlink:href="#aa"/><use transform="matrix(0.06790123456790123,0,0,0.06790123456790123,27.160493827160494,0)" xlink:href="#X"/><use transform="matrix(0.06790123456790123,0,0,0.06790123456790123,40.74074074074074,0)" xlink:href="#ad"/><use transform="matrix(0.06790123456790123,0,0,0.06790123456790123,47.53086419753086,0)" xlink:href="#Y"/><use transform="matrix(0.06790123456790123,0,0,0.06790123456790123,52.895061728395056,0)" xlink:href="#ai"/><use transform="matrix(0.06790123456790123,0,0,0.06790123456790123,65.11728395061728,0)" xlink:href="#Q"/><use transform="matrix(0.06790123456790123,0,0,0.06790123456790123,71.9074074074074,0)" xlink:href="#P"/><use transform="matrix(0.06790123456790123,0,0,0.06790123456790123,84.12962962962962,0)" xlink:href="#am"/><use transform="matrix(0.06790123456790123,0,0,0.06790123456790123,97.70987654320987,0)" xlink:href="#S"/><use transform="matrix(0.06790123456790123,0,0,0.06790123456790123,104.5,0)" xlink:href="#R"/></g><g id="v"><use transform="matrix(0.06790123456790122,0,0,0.06790123456790122,0,0)" xlink:href="#Z"/><use transform="matrix(0.06790123456790122,0,0,0.06790123456790122,13.580246913580243,0)" xlink:href="#V"/><use transform="matrix(0.06790123456790122,0,0,0.06790123456790122,27.160493827160487,0)" xlink:href="#al"/><use transform="matrix(0.06790123456790122,0,0,0.06790123456790122,35.24074074074073,0)" xlink:href="#ak"/><use transform="matrix(0.06790123456790122,0,0,0.06790123456790122,48.82098765432097,0)" xlink:href="#M"/><use transform="matrix(0.06790123456790122,0,0,0.06790123456790122,62.40123456790121,0)" xlink:href="#ac"/><use transform="matrix(0.06790123456790122,0,0,0.06790123456790122,82.70370370370368,0)" xlink:href="#O"/><use transform="matrix(0.06790123456790122,0,0,0.06790123456790122,96.28395061728392,0)" xlink:href="#V"/><use transform="matrix(0.06790123456790122,0,0,0.06790123456790122,109.86419753086416,0)" xlink:href="#ak"/></g><path fill="#333" d="M179-190L93 31C79 59 56 82 12 73V49c39 6 53-20 64-50L1-190h34L92-34l54-156h33" id="an"/><g id="w"><use transform="matrix(0.06790123456790122,0,0,0.06790123456790122,0,0)" xlink:href="#ak"/><use transform="matrix(0.06790123456790122,0,0,0.06790123456790122,13.580246913580243,0)" xlink:href="#M"/><use transform="matrix(0.06790123456790122,0,0,0.06790123456790122,27.160493827160487,0)" xlink:href="#aj"/><use transform="matrix(0.06790123456790122,0,0,0.06790123456790122,40.74074074074073,0)" xlink:href="#N"/><use transform="matrix(0.06790123456790122,0,0,0.06790123456790122,46.10493827160493,0)" xlink:href="#Z"/><use transform="matrix(0.06790123456790122,0,0,0.06790123456790122,59.685185185185176,0)" xlink:href="#an"/><use transform="matrix(0.06790123456790122,0,0,0.06790123456790122,71.90740740740739,0)" xlink:href="#ac"/><use transform="matrix(0.06790123456790122,0,0,0.06790123456790122,92.20987654320986,0)" xlink:href="#M"/><use transform="matrix(0.06790123456790122,0,0,0.06790123456790122,105.7901234567901,0)" xlink:href="#V"/><use transform="matrix(0.06790123456790122,0,0,0.06790123456790122,119.37037037037034,0)" xlink:href="#W"/></g><g id="x"><use transform="matrix(0.06790123456790123,0,0,0.06790123456790123,0,0)" xlink:href="#ae"/><use transform="matrix(0.06790123456790123,0,0,0.06790123456790123,13.580246913580247,0)" xlink:href="#aa"/><use transform="matrix(0.06790123456790123,0,0,0.06790123456790123,27.160493827160494,0)" xlink:href="#X"/><use transform="matrix(0.06790123456790123,0,0,0.06790123456790123,40.74074074074074,0)" xlink:href="#ad"/><use transform="matrix(0.06790123456790123,0,0,0.06790123456790123,47.53086419753086,0)" xlink:href="#Y"/><use transform="matrix(0.06790123456790123,0,0,0.06790123456790123,52.895061728395056,0)" xlink:href="#ai"/><use transform="matrix(0.06790123456790123,0,0,0.06790123456790123,65.11728395061728,0)" xlink:href="#Q"/><use transform="matrix(0.06790123456790123,0,0,0.06790123456790123,71.9074074074074,0)" xlink:href="#P"/><use transform="matrix(0.06790123456790123,0,0,0.06790123456790123,84.12962962962962,0)" xlink:href="#T"/><use transform="matrix(0.06790123456790123,0,0,0.06790123456790123,97.70987654320987,0)" xlink:href="#S"/><use transform="matrix(0.06790123456790123,0,0,0.06790123456790123,104.5,0)" xlink:href="#R"/></g><path fill="#333" d="M114-157C55-157 80-60 75 0H25v-261h50l-1 109c12-26 28-41 61-42 86-1 58 113 63 194h-50c-7-57 23-157-34-157" id="ao"/><path fill="#333" d="M110-194c64 0 96 36 96 99 0 64-35 99-97 99-61 0-95-36-95-99 0-62 34-99 96-99zm-1 164c35 0 45-28 45-65 0-40-10-65-43-65-34 0-45 26-45 65 0 36 10 65 43 65" id="ap"/><path fill="#333" d="M121-226c-27-7-43 5-38 36h38v33H83V0H34v-157H6v-33h28c-9-59 32-81 87-68v32" id="aq"/><path fill="#333" d="M25-224v-37h50v37H25zM25 0v-190h50V0H25" id="ar"/><path fill="#333" d="M144 0l-44-69L55 0H2l70-98-66-92h53l41 62 40-62h54l-67 91 71 99h-54" id="as"/><g id="y"><use transform="matrix(0.09259259259259256,0,0,0.09259259259259256,0,0)" xlink:href="#ao"/><use transform="matrix(0.09259259259259256,0,0,0.09259259259259256,20.27777777777777,0)" xlink:href="#ap"/><use transform="matrix(0.09259259259259256,0,0,0.09259259259259256,40.55555555555554,0)" xlink:href="#H"/><use transform="matrix(0.09259259259259256,0,0,0.09259259259259256,51.57407407407407,0)" xlink:href="#aq"/><use transform="matrix(0.09259259259259256,0,0,0.09259259259259256,62.59259259259258,0)" xlink:href="#ar"/><use transform="matrix(0.09259259259259256,0,0,0.09259259259259256,71.85185185185183,0)" xlink:href="#as"/></g><g id="z"><use transform="matrix(0.06790123456790122,0,0,0.06790123456790122,0,0)" xlink:href="#L"/><use transform="matrix(0.06790123456790122,0,0,0.06790123456790122,8.080246913580245,0)" xlink:href="#M"/><use transform="matrix(0.06790123456790122,0,0,0.06790123456790122,21.660493827160487,0)" xlink:href="#N"/><use transform="matrix(0.06790123456790122,0,0,0.06790123456790122,27.024691358024683,0)" xlink:href="#M"/><use transform="matrix(0.06790123456790122,0,0,0.06790123456790122,40.60493827160492,0)" xlink:href="#O"/><use transform="matrix(0.06790123456790122,0,0,0.06790123456790122,54.18518518518516,0)" xlink:href="#P"/><use transform="matrix(0.06790123456790122,0,0,0.06790123456790122,66.40740740740738,0)" xlink:href="#M"/><use transform="matrix(0.06790123456790122,0,0,0.06790123456790122,79.98765432098762,0)" xlink:href="#Q"/><use transform="matrix(0.06790123456790122,0,0,0.06790123456790122,86.77777777777774,0)" xlink:href="#R"/><use transform="matrix(0.06790123456790122,0,0,0.06790123456790122,100.35802469135798,0)" xlink:href="#S"/><use transform="matrix(0.06790123456790122,0,0,0.06790123456790122,107.14814814814811,0)" xlink:href="#am"/><use transform="matrix(0.06790123456790122,0,0,0.06790123456790122,120.72839506172835,0)" xlink:href="#S"/><use transform="matrix(0.06790123456790122,0,0,0.06790123456790122,127.51851851851848,0)" xlink:href="#R"/></g><g id="A"><use transform="matrix(0.06790123456790123,0,0,0.06790123456790123,0,0)" xlink:href="#ak"/><use transform="matrix(0.06790123456790123,0,0,0.06790123456790123,13.580246913580247,0)" xlink:href="#M"/><use transform="matrix(0.06790123456790123,0,0,0.06790123456790123,27.160493827160494,0)" xlink:href="#ac"/><use transform="matrix(0.06790123456790123,0,0,0.06790123456790123,47.46296296296296,0)" xlink:href="#Z"/></g><g id="B"><use transform="matrix(0.06790123456790123,0,0,0.06790123456790123,0,0)" xlink:href="#P"/><use transform="matrix(0.06790123456790123,0,0,0.06790123456790123,12.222222222222221,0)" xlink:href="#M"/><use transform="matrix(0.06790123456790123,0,0,0.06790123456790123,25.80246913580247,0)" xlink:href="#af"/></g><g id="C"><use transform="matrix(0.06790123456790123,0,0,0.06790123456790123,0,0)" xlink:href="#ac"/><use transform="matrix(0.06790123456790123,0,0,0.06790123456790123,20.30246913580247,0)" xlink:href="#Y"/><use transform="matrix(0.06790123456790123,0,0,0.06790123456790123,25.666666666666664,0)" xlink:href="#X"/><use transform="matrix(0.06790123456790123,0,0,0.06790123456790123,39.24691358024691,0)" xlink:href="#L"/><use transform="matrix(0.06790123456790123,0,0,0.06790123456790123,47.32716049382716,0)" xlink:href="#O"/><use transform="matrix(0.06790123456790123,0,0,0.06790123456790123,60.907407407407405,0)" xlink:href="#W"/><use transform="matrix(0.06790123456790123,0,0,0.06790123456790123,67.69753086419753,0)" xlink:href="#Y"/><use transform="matrix(0.06790123456790123,0,0,0.06790123456790123,73.06172839506173,0)" xlink:href="#Z"/><use transform="matrix(0.06790123456790123,0,0,0.06790123456790123,86.64197530864197,0)" xlink:href="#V"/></g><g id="D"><use transform="matrix(0.06790123456790123,0,0,0.06790123456790123,0,0)" xlink:href="#P"/><use transform="matrix(0.06790123456790123,0,0,0.06790123456790123,12.222222222222221,0)" xlink:href="#af"/><use transform="matrix(0.06790123456790123,0,0,0.06790123456790123,24.444444444444443,0)" xlink:href="#ag"/><use transform="matrix(0.06790123456790123,0,0,0.06790123456790123,38.02469135802469,0)" xlink:href="#M"/><use transform="matrix(0.06790123456790123,0,0,0.06790123456790123,51.60493827160494,0)" xlink:href="#ak"/><use transform="matrix(0.06790123456790123,0,0,0.06790123456790123,65.18518518518519,0)" xlink:href="#aa"/><use transform="matrix(0.06790123456790123,0,0,0.06790123456790123,78.76543209876544,0)" xlink:href="#N"/><use transform="matrix(0.06790123456790123,0,0,0.06790123456790123,84.12962962962963,0)" xlink:href="#M"/><use transform="matrix(0.06790123456790123,0,0,0.06790123456790123,97.7098765432099,0)" xlink:href="#ak"/></g></defs></g></svg>